<svg width="144" height="42" viewBox="0 0 144 42" fill="none" xmlns="http://www.w3.org/2000/svg">
<path d="M138.667 42H5.33333C2.40133 42 0 39.6362 0 36.75V5.24998C0 2.36379 2.40133 -2.14012e-05 5.33333 -2.14012e-05H138.667C141.599 -2.14012e-05 144 2.36379 144 5.24998V36.75C144 39.6362 141.599 42 138.667 42Z" fill="black"/>
<path d="M138.667 0.841291C141.136 0.841291 143.145 2.81923 143.145 5.24998V36.75C143.145 39.1807 141.136 41.1587 138.667 41.1587H5.33333C2.864 41.1587 0.854666 39.1807 0.854666 36.75V5.24998C0.854666 2.81923 2.864 0.841291 5.33333 0.841291H138.667ZM138.667 -2.14012e-05H5.33333C2.40133 -2.14012e-05 0 2.36379 0 5.24998V36.75C0 39.6362 2.40133 42 5.33333 42H138.667C141.599 42 144 39.6362 144 36.75V5.24998C144 2.36379 141.599 -2.14012e-05 138.667 -2.14012e-05Z" fill="#A6A6A6"/>
<path d="M50.5787 10.7558C50.5787 11.6326 50.312 12.3348 49.7867 12.8584C49.1827 13.4793 48.396 13.7916 47.432 13.7916C46.5107 13.7916 45.724 13.474 45.0787 12.8479C44.432 12.2127 44.1094 11.4331 44.1094 10.4999C44.1094 9.56669 44.432 8.78707 45.0787 8.15707C45.724 7.52576 46.5107 7.20813 47.432 7.20813C47.8907 7.20813 48.328 7.30132 48.7454 7.47457C49.1614 7.64913 49.5 7.88538 49.7454 8.17676L49.188 8.73063C48.76 8.23319 48.1774 7.98776 47.432 7.98776C46.76 7.98776 46.1774 8.21876 45.6827 8.68469C45.1934 9.15194 44.948 9.75701 44.948 10.4999C44.948 11.2428 45.1934 11.8531 45.6827 12.3203C46.1774 12.781 46.76 13.0173 47.432 13.0173C48.1454 13.0173 48.7454 12.781 49.2187 12.3151C49.5307 12.0066 49.708 11.5814 49.7547 11.038H47.432V10.2794H50.5307C50.568 10.4434 50.5787 10.6023 50.5787 10.7558Z" fill="white" stroke="white" stroke-width="0.16" stroke-miterlimit="10"/>
<path d="M55.4944 8.1256H52.5838V10.1206H55.2078V10.8792H52.5838V12.8742H55.4944V13.6473H51.7598V7.35254H55.4944V8.1256Z" fill="white" stroke="white" stroke-width="0.16" stroke-miterlimit="10"/>
<path d="M58.9628 13.6473H58.1388V8.1256H56.3535V7.35254H60.7495V8.1256H58.9628V13.6473Z" fill="white" stroke="white" stroke-width="0.16" stroke-miterlimit="10"/>
<path d="M63.9316 13.6473V7.35254H64.7543V13.6473H63.9316Z" fill="white" stroke="white" stroke-width="0.16" stroke-miterlimit="10"/>
<path d="M68.4003 13.6473H67.583V8.1256H65.791V7.35254H70.1923V8.1256H68.4003V13.6473Z" fill="white" stroke="white" stroke-width="0.16" stroke-miterlimit="10"/>
<path d="M78.5149 12.8376C77.8842 13.4741 77.1029 13.7918 76.1709 13.7918C75.2336 13.7918 74.4522 13.4741 73.8216 12.8376C73.1922 12.2023 72.8789 11.4227 72.8789 10.5C72.8789 9.57732 73.1922 8.79769 73.8216 8.16244C74.4522 7.52588 75.2336 7.20825 76.1709 7.20825C77.0976 7.20825 77.8789 7.52588 78.5096 8.16769C79.1442 8.80819 79.4576 9.58257 79.4576 10.5C79.4576 11.4227 79.1442 12.2023 78.5149 12.8376ZM74.4309 12.3099C74.9056 12.7811 75.4829 13.0174 76.1709 13.0174C76.8536 13.0174 77.4362 12.7811 77.9056 12.3099C78.3789 11.8388 78.6189 11.2337 78.6189 10.5C78.6189 9.76632 78.3789 9.16125 77.9056 8.69007C77.4362 8.21888 76.8536 7.98263 76.1709 7.98263C75.4829 7.98263 74.9056 8.21888 74.4309 8.69007C73.9576 9.16125 73.7176 9.76632 73.7176 10.5C73.7176 11.2337 73.9576 11.8388 74.4309 12.3099Z" fill="white" stroke="white" stroke-width="0.16" stroke-miterlimit="10"/>
<path d="M80.6152 13.6473V7.35254H81.6152L84.7246 12.2482H84.7606L84.7246 11.038V7.35254H85.5472V13.6473H84.6886L81.4326 8.51016H81.3966L81.4326 9.72554V13.6473H80.6152Z" fill="white" stroke="white" stroke-width="0.16" stroke-miterlimit="10"/>
<path d="M72.6767 22.8401C70.1714 22.8401 68.1247 24.717 68.1247 27.3066C68.1247 29.8751 70.1714 31.7717 72.6767 31.7717C75.1874 31.7717 77.234 29.8751 77.234 27.3066C77.234 24.717 75.1874 22.8401 72.6767 22.8401ZM72.6767 30.0129C71.302 30.0129 70.1194 28.896 70.1194 27.3066C70.1194 25.6961 71.302 24.5989 72.6767 24.5989C74.0514 24.5989 75.2394 25.6961 75.2394 27.3066C75.2394 28.896 74.0514 30.0129 72.6767 30.0129ZM62.7447 22.8401C60.234 22.8401 58.1927 24.717 58.1927 27.3066C58.1927 29.8751 60.234 31.7717 62.7447 31.7717C65.254 31.7717 67.2967 29.8751 67.2967 27.3066C67.2967 24.717 65.254 22.8401 62.7447 22.8401ZM62.7447 30.0129C61.3687 30.0129 60.1821 28.896 60.1821 27.3066C60.1821 25.6961 61.3687 24.5989 62.7447 24.5989C64.1194 24.5989 65.3021 25.6961 65.3021 27.3066C65.3021 28.896 64.1194 30.0129 62.7447 30.0129ZM50.9261 24.2091V26.1069H55.5301C55.3954 27.1674 55.0354 27.9471 54.4834 28.4904C53.8114 29.1467 52.7647 29.8751 50.9261 29.8751C48.0927 29.8751 45.8741 27.6242 45.8741 24.8351C45.8741 22.0461 48.0927 19.7951 50.9261 19.7951C52.4581 19.7951 53.5727 20.3844 54.3954 21.1483L55.7541 19.8109C54.6034 18.7294 53.0727 17.8986 50.9261 17.8986C47.0407 17.8986 43.7754 21.0105 43.7754 24.8351C43.7754 28.6597 47.0407 31.7717 50.9261 31.7717C53.0261 31.7717 54.6034 31.0944 55.8434 29.8239C57.1141 28.5731 57.5101 26.8144 57.5101 25.3942C57.5101 24.9532 57.4727 24.5477 57.4061 24.2091H50.9261ZM99.254 25.6804C98.8794 24.6816 97.7234 22.8401 95.3687 22.8401C93.0354 22.8401 91.0927 24.6501 91.0927 27.3066C91.0927 29.8082 93.0154 31.7717 95.5927 31.7717C97.6767 31.7717 98.8794 30.5209 99.374 29.7924L97.8274 28.7779C97.3114 29.5207 96.6087 30.0129 95.5927 30.0129C94.5834 30.0129 93.8594 29.5575 93.3954 28.6597L99.4634 26.1883L99.254 25.6804ZM93.0674 27.1674C93.0154 25.4454 94.426 24.5634 95.4367 24.5634C96.2287 24.5634 96.9007 24.9532 97.1247 25.5111L93.0674 27.1674ZM88.1354 31.5H90.13V18.375H88.1354V31.5ZM84.8687 23.835H84.802C84.354 23.3126 83.4994 22.8401 82.4167 22.8401C80.1447 22.8401 78.0674 24.8036 78.0674 27.321C78.0674 29.8239 80.1447 31.7717 82.4167 31.7717C83.4994 31.7717 84.354 31.2952 84.802 30.7571H84.8687V31.3976C84.8687 33.1052 83.942 34.0226 82.4474 34.0226C81.2287 34.0226 80.4727 33.1564 80.1607 32.4279L78.426 33.1406C78.926 34.3245 80.25 35.7814 82.4474 35.7814C84.786 35.7814 86.7594 34.4269 86.7594 31.1312V23.1118H84.8687V23.835ZM82.5874 30.0129C81.2127 30.0129 80.062 28.8802 80.062 27.321C80.062 25.7473 81.2127 24.5989 82.5874 24.5989C83.942 24.5989 85.01 25.7473 85.01 27.321C85.01 28.8802 83.942 30.0129 82.5874 30.0129ZM108.593 18.375H103.822V31.5H105.811V26.5269H108.593C110.802 26.5269 112.969 24.9532 112.969 22.4503C112.969 19.9487 110.797 18.375 108.593 18.375ZM108.645 24.7012H105.811V20.2007H108.645C110.13 20.2007 110.978 21.4147 110.978 22.4503C110.978 23.4662 110.13 24.7012 108.645 24.7012ZM120.942 22.8152C119.505 22.8152 118.01 23.4399 117.395 24.8246L119.161 25.5531C119.541 24.8246 120.239 24.5884 120.978 24.5884C122.01 24.5884 123.057 25.1987 123.073 26.2762V26.4141C122.713 26.2093 121.942 25.9061 120.994 25.9061C119.093 25.9061 117.155 26.9364 117.155 28.8592C117.155 30.618 118.713 31.7507 120.463 31.7507C121.802 31.7507 122.541 31.1561 123.005 30.4644H123.073V31.479H124.994V26.4442C124.994 24.1172 123.229 22.8152 120.942 22.8152ZM120.702 30.0077C120.051 30.0077 119.145 29.6901 119.145 28.896C119.145 27.8801 120.275 27.4903 121.254 27.4903C122.13 27.4903 122.541 27.6806 123.073 27.9313C122.917 29.1467 121.854 30.0077 120.702 30.0077ZM131.994 23.1026L129.707 28.7923H129.639L127.275 23.1026H125.13L128.682 31.0537L126.655 35.4782H128.734L134.207 23.1026H131.994ZM114.062 31.5H116.057V18.375H114.062V31.5Z" fill="white"/>
<path d="M11.1299 7.91563C10.8166 8.23851 10.6353 8.74119 10.6353 9.3922V32.613C10.6353 33.264 10.8166 33.7666 11.1299 34.0895L11.2073 34.1604L24.4259 21.1535V20.8464L11.2073 7.83951L11.1299 7.91563Z" fill="url(#paint0_linear_321_9259)"/>
<path d="M28.8271 25.4915L24.4258 21.1536V20.8465L28.8324 16.5087L28.9311 16.5651L34.1498 19.4881C35.6391 20.3176 35.6391 21.6826 34.1498 22.5173L28.9311 25.435L28.8271 25.4915Z" fill="url(#paint1_linear_321_9259)"/>
<path d="M28.9302 25.435L24.4249 21L11.1289 34.0896C11.6236 34.6015 12.4302 34.6632 13.3476 34.1513L28.9302 25.435Z" fill="url(#paint2_linear_321_9259)"/>
<path d="M28.9302 16.5649L13.3476 7.84862C12.4302 7.342 11.6236 7.40368 11.1289 7.91556L24.4249 20.9999L28.9302 16.5649Z" fill="url(#paint3_linear_321_9259)"/>
<defs>
<linearGradient id="paint0_linear_321_9259" x1="23.2523" y1="32.8548" x2="5.63291" y2="14.9558" gradientUnits="userSpaceOnUse">
<stop stop-color="#00A0FF"/>
<stop offset="0.0066" stop-color="#00A1FF"/>
<stop offset="0.2601" stop-color="#00BEFF"/>
<stop offset="0.5122" stop-color="#00D2FF"/>
<stop offset="0.7604" stop-color="#00DFFF"/>
<stop offset="1" stop-color="#00E3FF"/>
</linearGradient>
<linearGradient id="paint1_linear_321_9259" x1="36.0891" y1="20.9986" x2="10.2791" y2="20.9986" gradientUnits="userSpaceOnUse">
<stop stop-color="#FFE000"/>
<stop offset="0.4087" stop-color="#FFBD00"/>
<stop offset="0.7754" stop-color="#FFA500"/>
<stop offset="1" stop-color="#FF9C00"/>
</linearGradient>
<linearGradient id="paint2_linear_321_9259" x1="26.4804" y1="18.5891" x2="2.58711" y2="-5.68339" gradientUnits="userSpaceOnUse">
<stop stop-color="#FF3A44"/>
<stop offset="1" stop-color="#C31162"/>
</linearGradient>
<linearGradient id="paint3_linear_321_9259" x1="7.78203" y1="41.8149" x2="18.4514" y2="30.9762" gradientUnits="userSpaceOnUse">
<stop stop-color="#32A071"/>
<stop offset="0.0685" stop-color="#2DA771"/>
<stop offset="0.4762" stop-color="#15CF74"/>
<stop offset="0.8009" stop-color="#06E775"/>
<stop offset="1" stop-color="#00F076"/>
</linearGradient>
</defs>
</svg>
