<svg width="23" height="27" viewBox="0 0 23 27" fill="none" xmlns="http://www.w3.org/2000/svg">
<g id="Group 952">
<path id="Ellipse 139" d="M21.6665 15.3334C21.6665 20.8562 17.1894 25.3334 11.6665 25.3334C6.14366 25.3334 1.6665 20.8562 1.6665 15.3334C1.6665 9.81053 6.14366 5.33337 11.6665 5.33337C17.1894 5.33337 21.6665 9.81053 21.6665 15.3334Z" stroke="white" stroke-width="2"/>
<path id="Ellipse 140" d="M18.0747 13.6596C17.4244 11.5429 15.7542 9.87273 13.6375 9.22246C12.8645 8.98498 12.4779 8.86624 12.0722 9.16603C11.6665 9.46583 11.6665 9.95321 11.6665 10.928V13.6306C11.6665 14.5734 11.6665 15.0448 11.9594 15.3377C12.2523 15.6306 12.7237 15.6306 13.6665 15.6306H16.3692C17.3439 15.6306 17.8313 15.6306 18.1311 15.2249C18.4309 14.8192 18.3122 14.4327 18.0747 13.6596Z" fill="white"/>
<path id="Vector 70" d="M8.33301 1.49649C11.0628 0.834502 12.5225 0.834502 14.9997 1.49649" stroke="white" stroke-width="2" stroke-linecap="round"/>
<path id="Vector 71" d="M1.42188 6.38434C1.69388 5.74966 2.63079 4.72208 3.35614 4.45007" stroke="white" stroke-width="2" stroke-linecap="round"/>
</g>
</svg>
