<svg width="32" height="32" viewBox="0 0 32 32" fill="none" xmlns="http://www.w3.org/2000/svg">
<path d="M6 15.8789V28.0001M26 14.6667L26 24.0001C26 25.8857 26 26.8285 25.4142 27.4143C24.8284 28.0001 23.8856 28.0001 22 28.0001H16C14.1144 28.0001 13.1716 28.0001 12.5858 27.4143C12 26.8285 12 25.8857 12 24.0001L12 14.6667H26Z" stroke="#F15152" stroke-width="2" stroke-linecap="round"/>
<path d="M22.7173 4H9.28273C8.01341 4 7.37875 4 6.88 4.32619C6.38125 4.65238 6.12687 5.23383 5.6181 6.39673L4.31698 9.37072C4.16825 9.71066 4.09389 9.88062 4.05213 10.0599C4.04529 10.0893 4.03912 10.1188 4.03361 10.1485C4 10.3295 4 10.515 4 10.8861C4 12.5593 4 13.3959 4.46934 13.9539C4.54332 14.0419 4.62475 14.1233 4.71272 14.1973C5.2708 14.6667 6.1074 14.6667 7.78061 14.6667H24.2194C25.8926 14.6667 26.7292 14.6667 27.2873 14.1973C27.3752 14.1233 27.4567 14.0419 27.5307 13.9539C28 13.3959 28 12.5593 28 10.8861C28 10.515 28 10.3295 27.9664 10.1485C27.9609 10.1188 27.9547 10.0893 27.9479 10.0599C27.9061 9.88062 27.8317 9.71066 27.683 9.37072L26.3819 6.39672C25.8731 5.23383 25.6188 4.65238 25.12 4.32619C24.6213 4 23.9866 4 22.7173 4Z" stroke="#F15152" stroke-width="2" stroke-linecap="round" stroke-linejoin="round"/>
<path d="M16.0002 14.6667V10.6667M9.3335 14.6667V10.6667M22.6668 14.6667V10.6667" stroke="#F15152" stroke-width="2" stroke-linecap="round" stroke-linejoin="round"/>
</svg>
